<?xml version="1.0" encoding="UTF-8" standalone="no"?>
<svg
   xmlns:dc="http://purl.org/dc/elements/1.1/"
   xmlns:cc="http://creativecommons.org/ns#"
   xmlns:rdf="http://www.w3.org/1999/02/22-rdf-syntax-ns#"
   xmlns:svg="http://www.w3.org/2000/svg"
   xmlns="http://www.w3.org/2000/svg"
   xmlns:sodipodi="http://sodipodi.sourceforge.net/DTD/sodipodi-0.dtd"
   xmlns:inkscape="http://www.inkscape.org/namespaces/inkscape"
   id="Lager_1"
   data-name="Lager 1"
   viewBox="0 0 111.86 108.35"
   version="1.1"
   sodipodi:docname="infoquiz.svg"
   width="111.86"
   height="108.35"
   inkscape:version="0.92.4 5da689c313, 2019-01-14">
  <metadata
     id="metadata49">
    <rdf:RDF>
      <cc:Work
         rdf:about="">
        <dc:format>image/svg+xml</dc:format>
        <dc:type
           rdf:resource="http://purl.org/dc/dcmitype/StillImage" />
      </cc:Work>
    </rdf:RDF>
  </metadata>
  <sodipodi:namedview
     pagecolor="#ffffff"
     bordercolor="#666666"
     borderopacity="1"
     objecttolerance="10"
     gridtolerance="10"
     guidetolerance="10"
     inkscape:pageopacity="0"
     inkscape:pageshadow="2"
     inkscape:window-width="1258"
     inkscape:window-height="803"
     id="namedview47"
     showgrid="false"
     inkscape:zoom="1.2389471"
     inkscape:cx="159.13055"
     inkscape:cy="82.628765"
     inkscape:window-x="2582"
     inkscape:window-y="1357"
     inkscape:window-maximized="1"
     inkscape:current-layer="Lager_1" />
  <defs
     id="defs4">
    <style
       id="style2">.cls-1{fill:#fff;}</style>
  </defs>
  <title
     id="title6">infoquiz</title>
  <path
     class="cls-1"
     d="m 99.4,49.57 a 43.74,43.74 0 0 0 -11,-24.11 44.78,44.78 0 0 0 -8.32,-7.15 43.76,43.76 0 0 0 -24.22,-7.25 45.45,45.45 0 0 0 -5.52,0.34 43.91,43.91 0 0 0 -16.32,5.47 44.65,44.65 0 0 0 -9.83,7.71 43.86,43.86 0 0 0 -9.22,14.57 43.27,43.27 0 0 0 -2.78,12.11 c -0.1,1.21 -0.15,2.44 -0.15,3.68 a 43.5,43.5 0 0 0 8.39,25.78 v 0 a 43.72,43.72 0 0 0 29.43,17.6 43.23,43.23 0 0 0 6.06,0.42 A 43.81,43.81 0 0 0 99.76,54.9 46.8,46.8 0 0 0 99.4,49.57 Z M 55.86,78.68 A 23.78,23.78 0 1 1 79.63,54.9 23.78,23.78 0 0 1 55.86,78.68 Z"
     id="path8"
     style="fill:#000000"
     inkscape:connector-curvature="0" />
  <path
     class="cls-1"
     d="M 15.04,46.15 0.31,45.88 0,62.97 14.45,63.36 c 0,0 -0.32,-15.03 0.59,-17.21 z"
     id="path10"
     style="fill:#000000"
     inkscape:connector-curvature="0" />
  <path
     class="cls-1"
     d="M 14.11,41.55"
     id="path12"
     style="fill:#000000"
     inkscape:connector-curvature="0" />
  <path
     class="cls-1"
     d="M 10.18,76.08"
     id="path14"
     style="fill:#000000"
     inkscape:connector-curvature="0" />
  <path
     class="cls-1"
     d="M 31.73,19.86 20.6,10.2 9.4,23.15 20.24,32.73 c 0,0 9.37,-11.76 11.49,-12.87 z"
     id="path16"
     style="fill:#000000"
     inkscape:connector-curvature="0" />
  <path
     class="cls-1"
     d="M 64.86,14.74 64.79,0 47.7,0.08 47.64,14.54 c 0,0 14.95,-0.66 17.22,0.2 z"
     id="path18"
     style="fill:#000000"
     inkscape:connector-curvature="0" />
  <path
     class="cls-1"
     d="M 91.74,32.89 102.91,22.27 91.13,9.89 80.08,20.22 c 0,0 10.78,10.43 11.66,12.67 z"
     id="path20"
     style="fill:#000000"
     inkscape:connector-curvature="0" />
  <path
     class="cls-1"
     d="m 97.13,63.58 h 14.73 V 46.49 L 97.4,46.38 c 0,0 0.59,14.97 -0.27,17.2 z"
     id="path22"
     style="fill:#000000"
     inkscape:connector-curvature="0" />
  <path
     class="cls-1"
     d="M 80.69,89.61 92.06,98.98 102.93,85.8 91.86,76.5 c 0,0 -9.08,11.95 -11.17,13.11 z"
     id="path24"
     style="fill:#000000"
     inkscape:connector-curvature="0" />
  <path
     class="cls-1"
     d="m 67.21,108.15 -0.35,-14.71 -17.08,0.45 0.26,14.46 c 0,0 14.92,-0.99 17.17,-0.2 z"
     id="path26"
     style="fill:#000000"
     inkscape:connector-curvature="0" />
  <path
     class="cls-1"
     d="M 22.45,78.6 12.18,89.15 24.44,101.06 34.61,90.77 c 0,0 -11.17,-9.99 -12.16,-12.17 z"
     id="path28"
     style="fill:#000000"
     inkscape:connector-curvature="0" />
</svg>
