<!-- Generated by IcoMoon.io -->
<svg version="1.1" xmlns="http://www.w3.org/2000/svg" width="896" height="1024" viewBox="0 0 896 1024">
<title></title>
<g id="icomoon-ignore">
</g>
<path d="M864 64h-240l-18.8-37.4c-8.044-15.894-24.255-26.6-42.966-26.6-0.012 0-0.024 0-0.036 0h-228.598c-0.054 0-0.118 0-0.182 0-18.614 0-34.725 10.721-42.493 26.325l-0.124 0.276-18.8 37.4h-240c-17.673 0-32 14.327-32 32v0 64c0 17.673 14.327 32 32 32v0h832c17.673 0 32-14.327 32-32v0-64c0-17.673-14.327-32-32-32v0zM106.4 934c3.25 50.369 44.897 89.993 95.799 90h491.601c50.903-0.007 92.55-39.631 95.785-89.717l0.015-0.283 42.4-678h-768z"></path>
</svg>
