<!-- Generated by IcoMoon.io -->
<svg version="1.1" xmlns="http://www.w3.org/2000/svg" width="704" height="1024" viewBox="0 0 704 1024">
<title></title>
<g id="icomoon-ignore">
</g>
<path d="M485.44 512l200.14-200.14c24.56-24.56 24.56-64.38 0-88.96l-44.48-44.48c-24.56-24.56-64.38-24.56-88.96 0l-200.14 200.14-200.14-200.14c-24.56-24.56-64.38-24.56-88.96 0l-44.48 44.48c-24.56 24.56-24.56 64.38 0 88.96l200.14 200.14-200.14 200.14c-24.56 24.56-24.56 64.38 0 88.96l44.48 44.48c24.56 24.56 64.4 24.56 88.96 0l200.14-200.14 200.14 200.14c24.56 24.56 64.4 24.56 88.96 0l44.48-44.48c24.56-24.56 24.56-64.38 0-88.96l-200.14-200.14z"></path>
</svg>
